<svg width="14" height="12" viewBox="0 0 14 12" fill="none" xmlns="http://www.w3.org/2000/svg">
<path d="M3.06673 0.849609H5.3694V7.30325C5.3694 10.2119 3.97572 11.227 1.74871 11.227C1.20336 11.227 0.506507 11.1361 0.0519714 10.9846L0.309522 9.12126C0.627667 9.2273 1.0367 9.30304 1.49115 9.30304C2.46071 9.30304 3.06673 8.86368 3.06673 7.28816V0.849609Z" fill="#2196F3"/>
<path d="M7.36868 8.697C7.97464 9.01514 8.94423 9.33329 9.92893 9.33329C10.9894 9.33329 11.5499 8.89398 11.5499 8.21225C11.5499 7.59114 11.0651 7.21243 9.83804 6.78821C8.14128 6.18222 7.02027 5.24296 7.02027 3.74321C7.02027 2.00101 8.48975 0.682983 10.8833 0.682983C12.0499 0.682983 12.883 0.910292 13.4891 1.19809L12.9739 3.0463C12.5801 2.8494 11.8377 2.56153 10.8531 2.56153C9.85321 2.56153 9.36841 3.03116 9.36841 3.54626C9.36841 4.19769 9.92893 4.48549 11.2621 5.00062C13.0648 5.6672 13.8981 6.60646 13.8981 8.06079C13.8981 9.77268 12.5952 11.227 9.79259 11.227C8.62605 11.227 7.47466 10.9089 6.89908 10.5907L7.36868 8.697Z" fill="#2196F3"/>
</svg>
